<svg xmlns="http://www.w3.org/2000/svg" width="30.468" height="36" viewBox="0 0 30.468 36">
  <path id="Icon_simple-stackoverflow" data-name="Icon simple-stackoverflow" d="M28.479,32.8V23.192h3.2V36H2.766V23.191H5.961V32.8ZM9.167,29.6H25.275V26.391H9.167Zm.389-7.278L25.275,25.6l.677-3.1L10.235,19.217l-.679,3.1Zm2.038-7.584,14.558,6.8L27.506,18.6l-14.559-6.8-1.353,2.9v.021Zm4.073-7.177L27.992,17.84l2.038-2.43L17.706,5.13,15.681,7.556l-.015,0ZM23.626,0,21.007,1.941l9.608,12.906,2.619-1.941L23.624,0h0Z" transform="translate(-2.766)"/>
</svg>
